# xmcd
#
# Track frame offsets:
#	150
#	14888
#	33788
#	50087
#	67027
#	82528
#	95404
#	111477
#
# Disc length: 1729 seconds
#
# Revision: 0
# Processed by: cddbd v1.5PL3 Copyright (c) Steve Scherf et al.
# Submitted via: dBpowerAMP V4.0
#
DISCID=6506bf08
DTITLE=Aaron Pritchett - Consider This
DYEAR=1900
DGENRE=
TTITLE0=Consider This
TTITLE1=You Can't Say I Didn't Love You
TTITLE2=What Some People Throw Away
TTITLE3=Heart Like A Hurricane
TTITLE4=The Last Good-Bye
TTITLE5=Bad For Good
TTITLE6=Perfectly Blue
TTITLE7=Tip Jars and Tear Drops
EXTD=
EXTT0=
EXTT1=
EXTT2=
EXTT3=
EXTT4=
EXTT5=
EXTT6=
EXTT7=
PLAYORDER=
